# xmcd
#
# Track frame offsets:
#	150
#	17832
#	29565
#	43010
#	54115
#	65217
#	76985
#	88592
#	99995
#	123620
#
# Disc length: 1865 seconds
#
# Revision: 2
# Processed by: cddbd v1.5.2PL0 Copyright (c) Steve Scherf et al.
# Submitted via: audiograbber 1.83.01
#
DISCID=7f07470a
DTITLE=Bobby (Blue) Bland - The Best Of Bobby (Blue) Bland B.B. King and Little J
DTITLE=unior Parker
DYEAR=1973
DGENRE=Blues
TTITLE0=Bobby Bland and B.B. King - Bland, King
TTITLE1=Bobby Bland and B.B. King - Bland, King
TTITLE2=Bobby Bland - Bland
TTITLE3=Bobby Bland and Little Junior Parker - Bland, Parker
TTITLE4=Bobby Bland - Bland
TTITLE5=Bobby Bland - Bland
TTITLE6=Bobby Bland and Little Junior Parker - Bland, Parker
TTITLE7=Little Junior Parker - Parker
TTITLE8=Bobby Bland and B.B. King - Bland, King
TTITLE9=B.C. King - King
EXTD=
EXTT0=
EXTT1=
EXTT2=
EXTT3=
EXTT4=
EXTT5=
EXTT6=
EXTT7=
EXTT8=
EXTT9=
PLAYORDER=
